<svg width="17" height="17" viewBox="0 0 17 17" fill="none" xmlns="http://www.w3.org/2000/svg">
<g clip-path="url(#clip0_890_31725)">
<path d="M11.4549 14.2962C11.2152 14.5359 10.8379 14.5359 10.5982 14.2962C10.3667 14.0646 10.3667 13.6792 10.5982 13.4482L14.9419 9.10455L0.60842 9.10455C0.274292 9.10455 8.25088e-05 8.83897 8.2538e-05 8.50485C8.25672e-05 8.17072 0.274293 7.89651 0.60842 7.89651L14.9419 7.89651L10.5982 3.56095C10.3667 3.32129 10.3667 2.93534 10.5982 2.70432C10.8379 2.46465 11.2152 2.46465 11.4549 2.70432L16.8268 8.07626C17.0584 8.30783 17.0584 8.69323 16.8268 8.92426L11.4549 14.2962Z" fill="#216079"/>
</g>
<defs>
<clipPath id="clip0_890_31725">
<rect width="17" height="17" fill="white" transform="translate(17 17) rotate(-180)"/>
</clipPath>
</defs>
</svg>
