<svg width="35" height="29" viewBox="0 0 35 29" fill="none" xmlns="http://www.w3.org/2000/svg">
<path d="M24.649 24.1006C24.2902 24.1006 23.999 23.8432 23.999 23.4831V23.4181C23.999 23.0593 24.2902 22.7681 24.649 22.7681C25.0078 22.7681 25.299 23.0593 25.299 23.4181C25.299 23.7769 25.0078 24.1006 24.649 24.1006Z" fill="#F37800"/>
<path d="M24.6494 28.8001H19.4494C19.0906 28.8001 18.7994 28.5089 18.7994 28.1501V26.061C17.2017 26.2443 15.2465 26.2534 13.5994 26.0441V28.1501C13.5994 28.5089 13.3082 28.8001 12.9494 28.8001H7.74936C7.39056 28.8001 7.09937 28.5089 7.09937 28.1501V23.7041C4.90367 22.2182 3.83507 20.4814 3.43597 19.7001H1.24937C0.890565 19.7001 0.599365 19.4089 0.599365 19.0501V13.8501C0.599365 13.4913 0.890565 13.2001 1.24937 13.2001H3.40736C3.69207 12.5657 4.35637 11.3684 5.70446 10.1724L4.52666 6.23735C4.46816 6.03975 4.50457 5.82655 4.62807 5.66275C4.75027 5.49765 4.94396 5.40015 5.14936 5.40015C6.90176 5.40015 9.93857 6.33225 10.8434 8.01835C11.0137 8.33425 10.8954 8.72815 10.5782 8.89845C10.2597 9.07005 9.86836 8.95045 9.69806 8.63325C9.23786 7.77525 7.52057 7.01865 6.04637 6.77945L7.07207 10.2062C7.14747 10.4571 7.06426 10.7301 6.86017 10.8965C4.99206 12.424 4.47597 14.0256 4.47077 14.0425C4.38627 14.3116 4.13407 14.5001 3.84937 14.5001H1.89937V18.4001H3.84937C4.11586 18.4001 4.35637 18.5652 4.45517 18.8135C4.46297 18.8356 5.37037 21.069 8.09906 22.8045C8.28626 22.9241 8.39936 23.1308 8.39936 23.3531V27.5001H12.2994V25.2901C12.2994 25.099 12.3839 24.9157 12.5308 24.7922C12.6777 24.6687 12.8727 24.6167 13.0599 24.6492C14.9956 24.9846 17.4942 24.9703 19.3454 24.6739C19.5339 24.6427 19.725 24.6986 19.8693 24.8208C20.0162 24.9443 20.0994 25.125 20.0994 25.3161V27.5001H23.9994V23.4831C23.9994 23.2621 24.1112 23.0567 24.2971 22.9371C27.5484 20.8402 27.8994 17.702 27.8994 16.4501C27.8994 15.2437 27.1168 11.657 23.547 9.56925C23.2376 9.38725 23.1336 8.98945 23.3143 8.68005C23.4963 8.36935 23.8915 8.26535 24.2035 8.44735C28.3024 10.8445 29.1994 15.037 29.1994 16.4501C29.1994 17.8762 28.812 21.3901 25.2994 23.8302V28.1501C25.2994 28.5089 25.0082 28.8001 24.6494 28.8001Z" fill="#F37800"/>
<path d="M22.1803 11.6919C22.0815 11.6919 21.9814 11.6698 21.8865 11.6217C20.5475 10.9444 18.8536 10.5999 16.849 10.5999C14.7391 10.5999 12.8802 10.869 11.3241 11.3994C10.9835 11.5164 10.6143 11.3331 10.4986 10.9938C10.3829 10.6532 10.5636 10.284 10.9042 10.1683C12.5955 9.59243 14.5961 9.29993 16.849 9.29993C19.059 9.29993 20.9518 9.69122 22.4754 10.4621C22.7952 10.6246 22.9239 11.0159 22.7614 11.3357C22.6457 11.5619 22.4182 11.6919 22.1803 11.6919Z" fill="#F37800"/>
<path d="M19.9045 10.8991C19.703 10.8991 19.5028 10.8055 19.3767 10.6287C19.1674 10.3375 19.2337 9.93188 19.5249 9.72128C20.6988 8.87628 21.3995 7.50347 21.3995 6.05007C21.3995 3.54107 19.3585 1.50007 16.8495 1.50007C14.3405 1.50007 12.2995 3.54107 12.2995 6.05007C12.2995 7.49047 12.9495 8.80348 14.0805 9.65108C14.3678 9.86688 14.4263 10.2738 14.2118 10.5611C13.996 10.8484 13.5891 10.9069 13.3018 10.6924C11.8393 9.59647 10.9995 7.90387 10.9995 6.05007C10.9995 2.82477 13.6242 0.200073 16.8495 0.200073C20.0748 0.200073 22.6995 2.82477 22.6995 6.05007C22.6995 7.91947 21.796 9.68747 20.2841 10.7769C20.1684 10.8588 20.0358 10.8991 19.9045 10.8991Z" fill="#F37800"/>
<path d="M7.09965 15.8003C7.81763 15.8003 8.39966 15.2183 8.39966 14.5003C8.39966 13.7823 7.81763 13.2003 7.09965 13.2003C6.38168 13.2003 5.79965 13.7823 5.79965 14.5003C5.79965 15.2183 6.38168 15.8003 7.09965 15.8003Z" fill="#F37800"/>
<path d="M28.549 17.1003C28.1902 17.1003 27.899 16.8091 27.899 16.4503C27.899 16.0915 28.1902 15.8003 28.549 15.8003C28.9182 15.8003 29.3966 15.6313 29.8737 15.3674C29.394 14.6147 29.199 13.7398 29.199 13.2003C29.199 11.4752 29.8555 10.6003 31.149 10.6003C33.099 10.6003 33.099 12.4216 33.099 13.2003C33.099 13.9855 32.6167 14.7772 31.9355 15.4389C32.3684 15.5533 32.8845 15.4753 33.4812 15.2075C33.8088 15.0554 34.1936 15.2062 34.3405 15.5325C34.4887 15.8588 34.3431 16.2449 34.0155 16.3918C32.4919 17.0782 31.4428 16.7506 30.8292 16.3541C30.8149 16.345 30.8019 16.3359 30.7876 16.3268C30.0115 16.8026 29.1834 17.1003 28.549 17.1003ZM31.149 11.9003C30.8448 11.9003 30.499 11.9003 30.499 13.2003C30.499 13.5214 30.6316 14.1103 30.9319 14.6095C31.4363 14.1493 31.799 13.6319 31.799 13.2003C31.799 11.951 31.6105 11.9003 31.149 11.9003Z" fill="#F37800"/>
</svg>
