<svg width="11" height="11" viewBox="0 0 11 11" fill="none" xmlns="http://www.w3.org/2000/svg">
<g clip-path="url(#clip0_890_31954)">
<path d="M8.24673 3.69183C8.07741 3.51329 7.79513 3.50543 7.61631 3.67518L4.7694 6.3751L3.4115 4.98091C3.23952 4.80446 2.95753 4.80059 2.78093 4.9726C2.60448 5.14443 2.60076 5.42671 2.7726 5.60316L4.43746 7.31248C4.52471 7.40211 4.64066 7.44729 4.75691 7.44729C4.86721 7.44729 4.97752 7.40656 5.06388 7.32496L8.2301 4.32226C8.40876 4.1528 8.41633 3.87051 8.24673 3.69183Z" fill="#F37800"/>
<path d="M5.5 0C2.46727 0 0 2.46727 0 5.5C0 8.53273 2.46727 11 5.5 11C8.53273 11 11 8.53273 11 5.5C11 2.46727 8.53273 0 5.5 0ZM5.5 10.1081C2.95915 10.1081 0.891881 8.04102 0.891881 5.5C0.891881 2.95915 2.95913 0.891881 5.5 0.891881C8.041 0.891881 10.1081 2.95913 10.1081 5.5C10.1081 8.041 8.041 10.1081 5.5 10.1081Z" fill="#F37800"/>
</g>
<defs>
<clipPath id="clip0_890_31954">
<rect width="11" height="11" fill="white"/>
</clipPath>
</defs>
</svg>
