<svg width="10" height="11" viewBox="0 0 10 11" fill="none" xmlns="http://www.w3.org/2000/svg">
<path d="M9.87471 5.37113C10.056 5.15183 10.0385 4.8157 9.83563 4.62057L5.3665 0.319001C5.16365 0.123867 4.83843 0.127954 4.63984 0.328216L0.155528 4.84991C-0.0430546 5.05017 -0.0528012 5.38586 0.133949 5.59939L0.246377 5.72819C0.432899 5.94172 0.734391 5.96718 0.919349 5.78488L1.25448 5.45475V10.288C1.25448 10.5845 1.47292 10.8246 1.7423 10.8246H3.4903C3.75968 10.8246 3.97812 10.5845 3.97812 10.288V6.90667H6.20771V10.288C6.20383 10.5843 6.39658 10.8244 6.66596 10.8244H8.5184C8.78779 10.8244 9.00622 10.5843 9.00622 10.2878V5.5228C9.00622 5.5228 9.0988 5.61202 9.21299 5.72242C9.32698 5.83261 9.56641 5.74426 9.74768 5.52474L9.87471 5.37113Z" fill="#2E657A"/>
</svg>
