<svg width="64" height="64" viewBox="0 0 64 64" fill="none" xmlns="http://www.w3.org/2000/svg">
<g clip-path="url(#clip0_1155_31727)">
<path d="M53.5955 48.0966C53.0777 48.0966 52.658 48.5163 52.658 49.0341C52.658 49.5518 53.0777 49.9716 53.5955 49.9716H53.6055C54.1232 49.9716 54.538 49.5518 54.538 49.0341C54.538 48.5163 54.1133 48.0966 53.5955 48.0966V48.0966Z" fill="#F37800"/>
<path d="M22.5347 48.0966C22.0169 48.0966 21.5972 48.5163 21.5972 49.0341C21.5972 49.5518 22.0169 49.9716 22.5347 49.9716H22.5447C23.0624 49.9716 23.4772 49.5518 23.4772 49.0341C23.4772 48.5163 23.0525 48.0966 22.5347 48.0966V48.0966Z" fill="#F37800"/>
<path d="M63.0232 37.6676L60.0252 35.5242L59.9819 26.4581C59.9751 25.0619 58.9342 24.0484 57.5067 24.0484H50.2291C50.3144 23.5542 50.205 23.0682 49.9168 22.6924C49.6008 22.2807 49.1034 22.0444 48.5523 22.0444H42.0191C41.5014 22.0444 41.0816 22.4642 41.0816 22.9819C41.0816 23.4997 41.5014 23.9194 42.0191 23.9194L48.3324 23.9195L41.8541 48.0965H27.6166C27.6359 47.1575 27.3691 46.2775 26.834 45.5802C26.0959 44.6183 24.95 44.0884 23.6074 44.0884C21.1945 44.0884 18.7992 45.8003 17.8557 48.0965L13.7352 48.0964L15.5669 41.2603C15.7009 40.7602 15.4041 40.2462 14.9039 40.1121C14.4047 39.9786 13.8898 40.2749 13.7557 40.7751L11.8763 47.7894C11.7278 48.3434 11.8279 48.9026 12.1509 49.3235C12.4669 49.7352 12.9643 49.9715 13.5154 49.9715H17.4504C17.4311 50.9105 17.6977 51.7904 18.2329 52.4877C18.971 53.4497 20.1168 53.9795 21.4595 53.9795C23.8724 53.9795 26.2676 52.2676 27.2111 49.9715H48.5125C48.4933 50.9105 48.7599 51.7904 49.295 52.4877C50.0331 53.4497 51.179 53.9795 52.5216 53.9795C54.9346 53.9795 57.3298 52.2676 58.2733 49.9715H58.6057C60.1328 49.9715 61.6468 48.786 62.0523 47.2725L63.8961 40.3912C64.1872 39.3042 63.8529 38.2606 63.0232 37.6676V37.6676ZM25.6359 48.7914C25.1547 50.5872 23.2422 52.1045 21.4595 52.1045C20.7132 52.1045 20.0956 51.8352 19.7203 51.3464C19.3168 50.8206 19.2141 50.0856 19.431 49.2766C19.9121 47.4806 21.8247 45.9634 23.6074 45.9634C24.3537 45.9634 24.9713 46.2327 25.3465 46.7215C25.7499 47.2474 25.8528 47.9824 25.6359 48.7914ZM58.1479 35.0704H52.0759C51.9174 35.0704 51.7024 35.0365 51.5782 34.8748C51.4689 34.7323 51.4456 34.5033 51.5145 34.2465L52.3199 31.2406C52.5067 30.5432 53.271 29.9315 53.9552 29.9315H58.1233L58.1479 35.0704ZM56.6981 48.7914C56.2168 50.5872 54.3043 52.1045 52.5216 52.1045C51.7754 52.1045 51.1577 51.8352 50.7825 51.3464C50.379 50.8206 50.2763 50.0856 50.4931 49.2766C50.9742 47.4806 52.8869 45.9634 54.6696 45.9634C55.4158 45.9634 56.0334 46.2327 56.4087 46.7215C56.8121 47.2474 56.9149 47.9824 56.6981 48.7914ZM60.241 46.7874C60.0608 47.46 59.3435 48.0514 58.6788 48.0926C58.6972 47.1552 58.4304 46.2767 57.896 45.5803C57.1579 44.6184 56.0121 44.0886 54.6695 44.0886C52.2565 44.0886 49.8613 45.8004 48.9178 48.0966H43.7952L45.4407 41.9556H56.7453C57.2631 41.9556 57.6828 41.5358 57.6828 41.0181C57.6828 40.5004 57.2631 40.0806 56.7453 40.0806H45.9431L49.7364 25.9235H57.5064C57.779 25.9235 58.1045 26.0179 58.1067 26.4673L58.1143 28.0566H53.9551C52.428 28.0566 50.914 29.2421 50.5085 30.7555L49.7031 33.7614C49.4823 34.5857 49.6235 35.4075 50.0906 36.0163C50.5438 36.6069 51.2674 36.9455 52.0757 36.9455H58.7892L61.9326 39.193C62.1999 39.384 62.1166 39.7871 62.0848 39.9061L62.038 40.0806H60.7534C60.2356 40.0806 59.8159 40.5004 59.8159 41.0181C59.8159 41.5358 60.2356 41.9556 60.7534 41.9556H61.5356L60.241 46.7874Z" fill="#216079"/>
<path fill-rule="evenodd" clip-rule="evenodd" d="M49.996 22.6316C50.2796 23.0013 50.3988 23.4694 50.3443 23.9484H57.5066C58.987 23.9484 60.0748 25.0043 60.0818 26.4577L60.1248 35.4726L63.0813 37.5863C63.9492 38.2067 64.293 39.2954 63.9926 40.4171L62.1487 47.2984C61.7319 48.854 60.1796 50.0715 58.6055 50.0715H58.3398C57.3649 52.3707 54.9566 54.0795 52.5215 54.0795C51.1516 54.0795 49.9748 53.5382 49.2156 52.5486C48.6847 51.8568 48.4125 50.9926 48.4114 50.0715H27.2776C26.3028 52.3707 23.8944 54.0795 21.4593 54.0795C20.0895 54.0795 18.9127 53.5382 18.1534 52.5486C17.6226 51.8568 17.3503 50.9926 17.3493 50.0715H13.5153C12.9353 50.0715 12.4077 49.8225 12.0715 49.3844C11.7278 48.9367 11.6238 48.3447 11.7796 47.7635L13.659 40.7492C13.8074 40.1956 14.3772 39.8678 14.9296 40.0155C15.4832 40.1639 15.8117 40.7328 15.6634 41.2863L13.8654 47.9964L17.789 47.9965C18.7639 45.6973 21.1722 43.9885 23.6073 43.9885C24.9772 43.9885 26.154 44.5299 26.9132 45.5193C27.4441 46.2111 27.7164 47.0755 27.7175 47.9965H41.7773L48.202 24.0196L42.019 24.0194C41.446 24.0194 40.9815 23.5549 40.9815 22.9819C40.9815 22.409 41.446 21.9445 42.019 21.9445H48.5522C49.1321 21.9445 49.6597 22.1935 49.996 22.6316ZM42.019 23.9194C41.5012 23.9194 41.0815 23.4997 41.0815 22.9819C41.0815 22.4642 41.5012 22.0445 42.019 22.0445H48.5522C49.1033 22.0445 49.6006 22.2807 49.9166 22.6925C50.1854 23.0428 50.2987 23.489 50.2436 23.9484C50.2396 23.9817 50.2348 24.0151 50.229 24.0484H57.5066C58.934 24.0484 59.975 25.0619 59.9818 26.4582L60.025 35.5242L63.0231 37.6677C63.8527 38.2607 64.1871 39.3043 63.896 40.3913L62.0521 47.2726C61.6466 48.786 60.1327 49.9715 58.6055 49.9715H58.2732C57.3297 52.2676 54.9345 53.9795 52.5215 53.9795C51.1789 53.9795 50.033 53.4497 49.2949 52.4877C48.7788 51.8152 48.5125 50.9729 48.5114 50.0715C48.5114 50.0383 48.5117 50.0049 48.5124 49.9715H27.211C26.2675 52.2676 23.8723 53.9795 21.4593 53.9795C20.1167 53.9795 18.9709 53.4497 18.2327 52.4877C17.7167 51.8152 17.4503 50.9729 17.4493 50.0715C17.4492 50.0383 17.4496 50.0049 17.4503 49.9715H13.5153C12.9642 49.9715 12.4664 49.7356 12.1504 49.3239C11.8274 48.903 11.7277 48.3434 11.8762 47.7894L13.7555 40.7751C13.8897 40.2749 14.4045 39.9786 14.9038 40.1121C15.404 40.2463 15.7008 40.7603 15.5668 41.2604L13.735 48.0964L17.8556 48.0965C18.7991 45.8003 21.1943 44.0885 23.6073 44.0885C24.9499 44.0885 26.0958 44.6183 26.8339 45.5802C27.35 46.2528 27.6164 47.0952 27.6175 47.9965C27.6175 48.0298 27.6172 48.0631 27.6165 48.0965H41.854L48.3323 23.9196L42.019 23.9194ZM19.5274 49.3025C19.3163 50.0902 19.4199 50.7908 19.7996 51.2855C20.1518 51.7444 20.7369 52.0045 21.4593 52.0045C22.3233 52.0045 23.2259 51.6361 23.9735 51.0431C24.7209 50.4501 25.3051 49.6392 25.5392 48.7655C25.7503 47.9779 25.6466 47.2773 25.2671 46.7824C24.9148 46.3235 24.3298 46.0634 23.6073 46.0634C22.7433 46.0634 21.8408 46.4318 21.0931 47.0249C20.3457 47.6178 19.7615 48.4288 19.5274 49.3025ZM25.3464 46.7216C24.9712 46.2327 24.3536 45.9634 23.6073 45.9634C21.8246 45.9634 19.912 47.4807 19.4309 49.2767C19.214 50.0856 19.3167 50.8206 19.7202 51.3464C20.0955 51.8353 20.7131 52.1045 21.4593 52.1045C23.2421 52.1045 25.1545 50.5873 25.6358 48.7914C25.8527 47.9824 25.7498 47.2474 25.3464 46.7216ZM51.611 34.2725C51.5461 34.5141 51.5748 34.7062 51.6575 34.8139L51.5781 34.8748C51.4688 34.7323 51.4455 34.5033 51.5144 34.2466L52.3197 31.2406C52.5066 30.5432 53.2709 29.9315 53.9551 29.9315H58.1231L58.1478 35.0704H52.0757C51.9172 35.0704 51.7022 35.0366 51.5781 34.8748L51.6575 34.8139C51.7514 34.9364 51.9234 34.9704 52.0757 34.9704H58.0473L58.0237 30.0315H53.9551C53.6413 30.0315 53.3006 30.1727 53.0134 30.4026C52.7265 30.6323 52.5032 30.9424 52.4163 31.2665L51.611 34.2725ZM56.6014 48.7655C56.8125 47.9779 56.7088 47.2773 56.3292 46.7824C55.977 46.3235 55.3919 46.0634 54.6695 46.0634C53.8055 46.0634 52.9029 46.4318 52.1553 47.0249C51.4079 47.6178 50.8237 48.4288 50.5896 49.3025C50.3784 50.0902 50.482 50.7908 50.8617 51.2855C51.214 51.7444 51.799 52.0045 52.5215 52.0045C53.3855 52.0045 54.288 51.6361 55.0356 51.0431C55.783 50.4501 56.3672 49.6392 56.6014 48.7655ZM56.4086 46.7216C56.0333 46.2327 55.4157 45.9634 54.6695 45.9634C52.8867 45.9634 50.9741 47.4807 50.493 49.2767C50.2761 50.0856 50.3789 50.8206 50.7824 51.3464C51.1576 51.8353 51.7752 52.1045 52.5215 52.1045C54.3042 52.1045 56.2167 50.5873 56.6979 48.7914C56.9148 47.9824 56.8119 47.2474 56.4086 46.7216ZM59.5775 47.5999C59.85 47.3733 60.0606 47.074 60.1443 46.7615L61.4052 42.0556H60.7533C60.1803 42.0556 59.7158 41.5911 59.7158 41.0181C59.7158 40.4451 60.1803 39.9806 60.7533 39.9806H61.9611L61.988 39.8803C62.0028 39.8253 62.0286 39.7067 62.0209 39.5827C62.0133 39.4585 61.9736 39.3453 61.8744 39.2744L61.9325 39.193C62.1998 39.384 62.1165 39.7871 62.0846 39.9061L62.0379 40.0806H60.7533C60.2355 40.0806 59.8158 40.5004 59.8158 41.0181C59.8158 41.5359 60.2355 41.9556 60.7533 41.9556H61.5355L60.2409 46.7874C60.0697 47.4264 59.4139 47.992 58.7789 48.0824C58.7454 48.0872 58.712 48.0906 58.6787 48.0927C58.6793 48.0592 58.6796 48.0257 58.6796 47.9924C58.6776 47.0926 58.4112 46.2518 57.8959 45.5803C57.1578 44.6185 56.0119 44.0886 54.6693 44.0886C52.2564 44.0886 49.8611 45.8004 48.9177 48.0967H43.7951L45.4406 41.9556H56.7452C57.2629 41.9556 57.6827 41.5359 57.6827 41.0181C57.6827 40.5004 57.2629 40.0806 56.7452 40.0806H45.9429L49.7363 25.9235H57.5063C57.7789 25.9235 58.1044 26.0179 58.1066 26.4673L58.1142 28.0566H53.955C52.4279 28.0566 50.9139 29.2421 50.5084 30.7555L49.703 33.7615C49.4821 34.5857 49.6234 35.4076 50.0905 36.0163C50.5436 36.6069 51.2673 36.9455 52.0756 36.9455H58.789L61.9325 39.193L61.8744 39.2744L58.757 37.0455H52.0756C51.2393 37.0455 50.485 36.6948 50.0112 36.0772C49.5228 35.4408 49.3785 34.586 49.6064 33.7356L50.4118 30.7296C50.8286 29.1741 52.381 27.9566 53.955 27.9566H58.0137L58.0066 26.4678C58.0056 26.2707 57.9359 26.1677 57.8511 26.1092C57.7597 26.0462 57.6341 26.0235 57.5063 26.0235H49.813L46.0733 39.9806H56.7452C57.3182 39.9806 57.7827 40.4451 57.7827 41.0181C57.7827 41.5911 57.3182 42.0556 56.7452 42.0556H45.5173L43.9254 47.9967H48.851C49.8259 45.6974 52.2342 43.9886 54.6693 43.9886C56.0392 43.9886 57.216 44.53 57.9753 45.5194C58.5031 46.2074 58.7754 47.0659 58.7795 47.9812C59.0536 47.9387 59.3364 47.8005 59.5775 47.5999Z" fill="#216079"/>
<path d="M23.9844 39.9515C32.2364 39.9515 38.9499 33.2381 38.9499 24.986C38.9499 16.7338 32.2364 10.0204 23.9844 10.0204C15.7323 10.0204 9.0188 16.7339 9.0188 24.986C9.0188 33.238 15.7323 39.9515 23.9844 39.9515V39.9515ZM23.9844 11.8954C31.2025 11.8954 37.075 17.7678 37.075 24.986C37.075 32.2041 31.2027 38.0766 23.9844 38.0766C16.7661 38.0766 10.8938 32.2041 10.8938 24.986C10.8938 17.7678 16.7662 11.8954 23.9844 11.8954V11.8954Z" fill="#F37800"/>
<path d="M19.9752 29.9314C20.2151 29.9314 20.455 29.8399 20.638 29.6568L22.6753 27.6196C23.0695 27.8162 23.5135 27.9274 23.9831 27.9274C25.6051 27.9274 26.9246 26.6078 26.9246 24.986C26.9246 24.5164 26.8134 24.0724 26.6167 23.6781L31.66 18.6349C32.0262 18.2688 32.0262 17.6752 31.66 17.3092C31.2939 16.9429 30.7003 16.9431 30.3343 17.3092L25.291 22.3524C24.8967 22.1558 24.4528 22.0446 23.9831 22.0446C22.3612 22.0446 21.0417 23.3642 21.0417 24.9861C21.0417 25.4557 21.1529 25.8997 21.3494 26.294L19.3122 28.3312C18.9461 28.6973 18.9461 29.2909 19.3122 29.6569C19.4953 29.8399 19.7352 29.9314 19.9752 29.9314ZM23.9831 23.9195C24.5713 23.9195 25.0496 24.398 25.0496 24.986C25.0496 25.574 24.5711 26.0525 23.9831 26.0525C23.3951 26.0525 22.9166 25.574 22.9166 24.986C22.9166 24.398 23.3951 23.9195 23.9831 23.9195Z" fill="#F37800"/>
<path d="M23.9832 16.9053C24.5009 16.9053 24.9207 16.4856 24.9207 15.9678V14.9658C24.9207 14.4481 24.5009 14.0283 23.9832 14.0283C23.4654 14.0283 23.0457 14.4481 23.0457 14.9658V15.9678C23.0457 16.4857 23.4654 16.9053 23.9832 16.9053Z" fill="#216079"/>
<path fill-rule="evenodd" clip-rule="evenodd" d="M25.0208 15.9678C25.0208 16.5408 24.5563 17.0053 23.9833 17.0053C23.4103 17.0053 22.9458 16.541 22.9458 15.9678V14.9658C22.9458 14.3929 23.4103 13.9283 23.9833 13.9283C24.5563 13.9283 25.0208 14.3929 25.0208 14.9658V15.9678ZM24.9208 15.9678C24.9208 16.4856 24.5011 16.9053 23.9833 16.9053C23.4656 16.9053 23.0458 16.4857 23.0458 15.9678V14.9658C23.0458 14.4481 23.4656 14.0283 23.9833 14.0283C24.5011 14.0283 24.9208 14.4481 24.9208 14.9658V15.9678Z" fill="#216079"/>
<path d="M23.9832 33.0665C23.4654 33.0665 23.0457 33.4863 23.0457 34.004V35.006C23.0457 35.5238 23.4654 35.9435 23.9832 35.9435C24.5009 35.9435 24.9207 35.5238 24.9207 35.006V34.004C24.9207 33.4863 24.5009 33.0665 23.9832 33.0665Z" fill="#216079"/>
<path fill-rule="evenodd" clip-rule="evenodd" d="M22.9458 34.0041C22.9458 33.4311 23.4103 32.9666 23.9833 32.9666C24.5563 32.9666 25.0208 33.4311 25.0208 34.0041V35.0061C25.0208 35.579 24.5563 36.0436 23.9833 36.0436C23.4103 36.0436 22.9458 35.579 22.9458 35.0061V34.0041ZM23.0458 34.0041C23.0458 33.4863 23.4656 33.0666 23.9833 33.0666C24.5011 33.0666 24.9208 33.4863 24.9208 34.0041V35.0061C24.9208 35.5238 24.5011 35.9436 23.9833 35.9436C23.4656 35.9436 23.0458 35.5238 23.0458 35.0061V34.0041Z" fill="#216079"/>
<path d="M33.002 25.9235H34.004C34.5217 25.9235 34.9415 25.5037 34.9415 24.986C34.9415 24.4682 34.5217 24.0485 34.004 24.0485H33.002C32.4842 24.0485 32.0645 24.4682 32.0645 24.986C32.0645 25.5037 32.4842 25.9235 33.002 25.9235Z" fill="#216079"/>
<path fill-rule="evenodd" clip-rule="evenodd" d="M34.0041 26.0235H33.0021C32.4291 26.0235 31.9646 25.559 31.9646 24.986C31.9646 24.413 32.4291 23.9485 33.0021 23.9485H34.0041C34.5771 23.9485 35.0416 24.413 35.0416 24.986C35.0416 25.559 34.5771 26.0235 34.0041 26.0235ZM34.0041 25.9235H33.0021C32.4844 25.9235 32.0646 25.5037 32.0646 24.986C32.0646 24.4682 32.4844 24.0485 33.0021 24.0485H34.0041C34.5219 24.0485 34.9416 24.4682 34.9416 24.986C34.9416 25.5037 34.5219 25.9235 34.0041 25.9235Z" fill="#216079"/>
<path d="M15.9026 24.986C15.9026 24.4682 15.4829 24.0485 14.9651 24.0485H13.9631C13.4454 24.0485 13.0256 24.4682 13.0256 24.986C13.0256 25.5037 13.4454 25.9235 13.9631 25.9235H14.9651C15.4829 25.9235 15.9026 25.5037 15.9026 24.986Z" fill="#216079"/>
<path fill-rule="evenodd" clip-rule="evenodd" d="M14.9653 23.9485C15.5383 23.9485 16.0028 24.413 16.0028 24.986C16.0028 25.559 15.5383 26.0235 14.9653 26.0235H13.9633C13.3903 26.0235 12.9258 25.559 12.9258 24.986C12.9258 24.413 13.3903 23.9485 13.9633 23.9485H14.9653ZM14.9653 24.0485C15.483 24.0485 15.9028 24.4682 15.9028 24.986C15.9028 25.5037 15.483 25.9235 14.9653 25.9235H13.9633C13.4455 25.9235 13.0258 25.5037 13.0258 24.986C13.0258 24.4682 13.4455 24.0485 13.9633 24.0485H14.9653Z" fill="#216079"/>
<path d="M10.9575 37.0745H0.937489C0.419745 37.0745 0 37.4942 0 38.012C0 38.5297 0.419745 38.9495 0.937489 38.9495H10.9575C11.4752 38.9495 11.895 38.5297 11.895 38.012C11.895 37.4942 11.4752 37.0745 10.9575 37.0745Z" fill="#F37800"/>
<path d="M9.95548 41.0825H3.94336C3.42561 41.0825 3.00586 41.5023 3.00586 42.02C3.00586 42.5378 3.42561 42.9575 3.94336 42.9575H9.95548C10.4732 42.9575 10.893 42.5378 10.893 42.02C10.893 41.5023 10.4732 41.0825 9.95548 41.0825Z" fill="#F37800"/>
<path d="M8.95322 45.0905H6.94922C6.43147 45.0905 6.01172 45.5102 6.01172 46.028C6.01172 46.5457 6.43147 46.9655 6.94922 46.9655H8.95322C9.47097 46.9655 9.89072 46.5457 9.89072 46.028C9.89072 45.5102 9.47097 45.0905 8.95322 45.0905Z" fill="#F37800"/>
</g>
<defs>
<clipPath id="clip0_1155_31727">
<rect width="64" height="64" fill="white"/>
</clipPath>
</defs>
</svg>
