<svg width="44" height="43" viewBox="0 0 44 43" fill="none" xmlns="http://www.w3.org/2000/svg">
<g clip-path="url(#clip0_890_31622)">
<path d="M40.9123 13.6717C41.1323 13.5924 41.3119 13.4302 41.4103 13.2199C41.5088 13.0095 41.5174 12.7691 41.434 12.5523C38.5081 4.92824 31.0611 -0.127927 22.7337 -0.149999V-0.15H22.7333C22.2488 -0.15 21.85 0.234788 21.85 0.716667V19.35C21.85 19.8313 22.2479 20.2158 22.7317 20.2167M40.9123 13.6717C40.9123 13.6717 40.9123 13.6718 40.9122 13.6718L40.8613 13.5307L40.9125 13.6717C40.9125 13.6717 40.9124 13.6717 40.9123 13.6717ZM40.9123 13.6717C35.6941 15.5667 31.9892 16.9142 29.3563 17.8718C27.17 18.667 25.7227 19.1933 24.7616 19.5412C23.7035 19.9242 23.2321 20.0919 23.0126 20.1636C22.9076 20.1979 22.8467 20.215 22.8033 20.2196C22.7735 20.2227 22.752 20.2201 22.7356 20.2173C22.7337 20.217 22.7325 20.2168 22.7317 20.2167M22.7317 20.2167C22.7323 20.2167 22.7328 20.2167 22.7333 20.2167C22.7335 20.2167 22.7331 20.2167 22.7325 20.2166L22.7305 20.2164C22.7305 20.2164 22.7296 20.2163 22.7317 20.2167ZM23.6167 18.104V1.59046C30.5618 1.94219 36.6997 6.11701 39.45 12.3548L23.6167 18.104Z" fill="#F37800" stroke="#F37800" stroke-width="0.3"/>
<mask id="path-2-outside-1_890_31622" maskUnits="userSpaceOnUse" x="-1.01245" y="3.30005" width="46" height="41" fill="black">
<rect fill="white" x="-1.01245" y="3.30005" width="46" height="41"/>
<path d="M39.5999 23.6501C39.6076 21.341 39.1902 19.0494 38.3678 16.8848C38.2962 16.7043 38.1529 16.5599 37.9706 16.4843C37.7883 16.4087 37.5824 16.4084 37.3998 16.4834L20.5332 22.6181V5.01672C20.5332 4.62092 20.2048 4.30005 19.7998 4.30005C11.782 4.29543 4.55278 9.01675 1.48985 16.2581C-1.57308 23.4994 0.134973 31.8312 5.81596 37.3605C11.4969 42.8898 20.0293 44.5251 27.4265 41.5023C32.4489 44.3235 38.8494 42.8546 42.0618 38.1436C45.2743 33.4325 44.1976 27.0941 39.5999 23.6501V23.6501ZM19.0665 5.73339V22.7471L2.14849 18.8556C4.24623 11.3376 11.0983 6.02288 19.0665 5.73339ZM1.80382 20.2531L18.8465 24.1661L13.1998 40.3342C4.9344 37.2117 0.137307 28.7587 1.80382 20.2531ZM14.5565 40.8L20.3792 24.2019L37.2458 18.0816C37.7547 19.5858 38.0532 21.1504 38.1332 22.7328C33.1471 20.157 26.9755 21.6839 23.844 26.2679C20.7126 30.8518 21.6359 37.0077 25.9818 40.5205C22.3031 41.8111 18.2967 41.9091 14.5565 40.8V40.8ZM32.9998 41.5668C27.7347 41.5668 23.4665 37.3956 23.4665 32.2501C23.4665 27.1047 27.7347 22.9334 32.9998 22.9334C38.265 22.9334 42.5332 27.1047 42.5332 32.2501C42.5332 34.7211 41.5288 37.0908 39.7409 38.838C37.9531 40.5852 35.5282 41.5668 32.9998 41.5668V41.5668Z"/>
</mask>
<path d="M39.5999 23.6501C39.6076 21.341 39.1902 19.0494 38.3678 16.8848C38.2962 16.7043 38.1529 16.5599 37.9706 16.4843C37.7883 16.4087 37.5824 16.4084 37.3998 16.4834L20.5332 22.6181V5.01672C20.5332 4.62092 20.2048 4.30005 19.7998 4.30005C11.782 4.29543 4.55278 9.01675 1.48985 16.2581C-1.57308 23.4994 0.134973 31.8312 5.81596 37.3605C11.4969 42.8898 20.0293 44.5251 27.4265 41.5023C32.4489 44.3235 38.8494 42.8546 42.0618 38.1436C45.2743 33.4325 44.1976 27.0941 39.5999 23.6501V23.6501ZM19.0665 5.73339V22.7471L2.14849 18.8556C4.24623 11.3376 11.0983 6.02288 19.0665 5.73339ZM1.80382 20.2531L18.8465 24.1661L13.1998 40.3342C4.9344 37.2117 0.137307 28.7587 1.80382 20.2531ZM14.5565 40.8L20.3792 24.2019L37.2458 18.0816C37.7547 19.5858 38.0532 21.1504 38.1332 22.7328C33.1471 20.157 26.9755 21.6839 23.844 26.2679C20.7126 30.8518 21.6359 37.0077 25.9818 40.5205C22.3031 41.8111 18.2967 41.9091 14.5565 40.8V40.8ZM32.9998 41.5668C27.7347 41.5668 23.4665 37.3956 23.4665 32.2501C23.4665 27.1047 27.7347 22.9334 32.9998 22.9334C38.265 22.9334 42.5332 27.1047 42.5332 32.2501C42.5332 34.7211 41.5288 37.0908 39.7409 38.838C37.9531 40.5852 35.5282 41.5668 32.9998 41.5668V41.5668Z" fill="#216079"/>
<path d="M38.3679 16.8848L38.6483 16.7782L38.6467 16.774L38.3679 16.8848ZM37.9706 16.4843L38.0855 16.2071L37.9706 16.4843ZM37.3998 16.4834L37.5025 16.7656L37.5139 16.7609L37.3998 16.4834ZM20.5332 22.6181H20.2332V23.0464L20.6357 22.9L20.5332 22.6181ZM19.7998 4.30005L19.7997 4.60005H19.7998V4.30005ZM27.4265 41.5023L27.5734 41.2408L27.4471 41.1698L27.313 41.2246L27.4265 41.5023ZM19.0665 5.73339H19.3665V5.42229L19.0556 5.43359L19.0665 5.73339ZM19.0665 22.7471L18.9993 23.0395L19.3665 23.1239V22.7471H19.0665ZM2.14849 18.8556L1.85953 18.775L1.7751 19.0775L2.08124 19.148L2.14849 18.8556ZM1.80382 20.2531L1.87096 19.9607L1.56899 19.8914L1.50942 20.1954L1.80382 20.2531ZM18.8465 24.1661L19.1297 24.265L19.2402 23.9487L18.9136 23.8737L18.8465 24.1661ZM13.1998 40.3342L13.0938 40.6148L13.3816 40.7235L13.4831 40.4331L13.1998 40.3342ZM20.3792 24.2019L20.2768 23.9199L20.1432 23.9684L20.0961 24.1026L20.3792 24.2019ZM37.2458 18.0816L37.53 17.9855L37.4318 17.695L37.1435 17.7996L37.2458 18.0816ZM38.1332 22.7328L37.9955 22.9993L38.4591 23.2388L38.4328 22.7176L38.1332 22.7328ZM25.9818 40.5205L26.0812 40.8036L26.5889 40.6254L26.1704 40.2872L25.9818 40.5205ZM39.7409 38.838L39.9506 39.0526L39.7409 38.838ZM39.8998 23.6511C39.9077 21.3052 39.4837 18.9772 38.6483 16.7782L38.0874 16.9913C38.8968 19.1217 39.3074 21.3769 39.2999 23.6491L39.8998 23.6511ZM38.6467 16.774C38.5446 16.5169 38.3413 16.3132 38.0855 16.2071L37.8557 16.7614C37.9645 16.8065 38.0478 16.8918 38.089 16.9955L38.6467 16.774ZM38.0855 16.2071C37.8299 16.1012 37.5417 16.1007 37.2858 16.2059L37.5139 16.7609C37.6231 16.716 37.7466 16.7162 37.8557 16.7614L38.0855 16.2071ZM37.2973 16.2015L20.4306 22.3362L20.6357 22.9L37.5024 16.7654L37.2973 16.2015ZM20.8332 22.6181V5.01672H20.2332V22.6181H20.8332ZM20.8332 5.01672C20.8332 4.44877 20.364 4.00005 19.7998 4.00005V4.60005C20.0457 4.60005 20.2332 4.79306 20.2332 5.01672H20.8332ZM19.8 4.00005C11.6647 3.99536 4.32467 8.78597 1.21355 16.1412L1.76615 16.375C4.7809 9.24754 11.8993 4.5955 19.7997 4.60005L19.8 4.00005ZM1.21355 16.1412C-1.89808 23.4977 -0.161887 31.9609 5.60672 37.5755L6.0252 37.1455C0.431832 31.7015 -1.24809 23.5012 1.76615 16.375L1.21355 16.1412ZM5.60672 37.5755C11.3741 43.1889 20.0335 44.8475 27.54 41.78L27.313 41.2246C20.0252 44.2027 11.6198 42.5907 6.0252 37.1455L5.60672 37.5755ZM27.2796 41.7639C32.4354 44.66 39.0082 43.1543 42.3097 38.3126L41.814 37.9746C38.6907 42.5549 32.4623 43.987 27.5734 41.2408L27.2796 41.7639ZM42.3097 38.3126C45.6137 33.4673 44.5043 26.949 39.7797 23.41L39.42 23.8902C43.8908 27.2391 44.9349 33.3978 41.814 37.9746L42.3097 38.3126ZM18.7665 5.73339V22.7471H19.3665V5.73339H18.7665ZM19.1338 22.4547L2.21574 18.5632L2.08124 19.148L18.9993 23.0395L19.1338 22.4547ZM2.43745 18.9362C4.49906 11.5477 11.2358 6.31808 19.0774 6.03319L19.0556 5.43359C10.9607 5.72768 3.9934 11.1274 1.85953 18.775L2.43745 18.9362ZM1.73669 20.5455L18.7794 24.4585L18.9136 23.8737L1.87096 19.9607L1.73669 20.5455ZM18.5633 24.0672L12.9166 40.2352L13.4831 40.4331L19.1297 24.265L18.5633 24.0672ZM13.3059 40.0535C5.17333 36.9813 0.460665 28.6686 2.09822 20.3108L1.50942 20.1954C-0.186051 28.8488 4.69546 37.4421 13.0938 40.6148L13.3059 40.0535ZM14.8396 40.8993L20.6623 24.3013L20.0961 24.1026L14.2734 40.7007L14.8396 40.8993ZM20.4815 24.4839L37.3482 18.3636L37.1435 17.7996L20.2768 23.9199L20.4815 24.4839ZM36.9617 18.1777C37.4617 19.6559 37.755 21.1932 37.8336 22.7479L38.4328 22.7176C38.3514 21.1076 38.0477 19.5158 37.53 17.9855L36.9617 18.1777ZM38.2709 22.4662C33.1525 19.8222 26.8147 21.3875 23.5963 26.0986L24.0917 26.4371C27.1363 21.9803 33.1417 20.4919 37.9955 22.9993L38.2709 22.4662ZM23.5963 26.0986C20.3757 30.8131 21.327 37.1438 25.7933 40.7538L26.1704 40.2872C21.9448 36.8716 21.0494 30.8906 24.0917 26.4371L23.5963 26.0986ZM25.8825 40.2374C22.2633 41.5071 18.3216 41.6035 14.6418 40.5124L14.4712 41.0876C18.2719 42.2146 22.3428 42.1151 26.0812 40.8036L25.8825 40.2374ZM32.9998 41.2668C27.8939 41.2668 23.7665 37.2234 23.7665 32.2501H23.1665C23.1665 37.5677 27.5756 41.8668 32.9998 41.8668V41.2668ZM23.7665 32.2501C23.7665 27.2768 27.8939 23.2334 32.9998 23.2334V22.6334C27.5756 22.6334 23.1665 26.9325 23.1665 32.2501H23.7665ZM32.9998 23.2334C38.1058 23.2334 42.2332 27.2768 42.2332 32.2501H42.8332C42.8332 26.9325 38.4241 22.6334 32.9998 22.6334V23.2334ZM42.2332 32.2501C42.2332 34.6393 41.2621 36.932 39.5313 38.6235L39.9506 39.0526C41.7955 37.2497 42.8332 34.8029 42.8332 32.2501H42.2332ZM39.5313 38.6235C37.8002 40.3152 35.4509 41.2668 32.9998 41.2668V41.8668C35.6056 41.8668 38.106 40.8553 39.9506 39.0526L39.5313 38.6235Z" fill="#216079" mask="url(#path-2-outside-1_890_31622)"/>
<path d="M28.5999 37.4167C28.8333 37.4178 29.0582 37.3282 29.225 37.1666L29.2254 37.1662L38.025 28.5666C38.025 28.5665 38.0251 28.5665 38.0252 28.5664C38.1926 28.404 38.2875 28.1822 38.2875 27.9501C38.2875 27.718 38.1927 27.4964 38.0254 27.3339C37.8593 27.1705 37.6341 27.0792 37.3999 27.0792C37.1656 27.0792 36.9403 27.1706 36.7742 27.3341C36.7741 27.3342 36.774 27.3343 36.774 27.3344L27.9749 35.9335C27.9748 35.9336 27.9747 35.9337 27.9746 35.9338C27.7192 36.1815 27.6416 36.5571 27.7803 36.8836C27.9187 37.2093 28.2434 37.4184 28.5999 37.4167ZM28.5999 37.4167C28.5996 37.4167 28.5994 37.4167 28.5991 37.4167L28.5999 37.2667L28.6008 37.4167C28.6005 37.4167 28.6002 37.4167 28.5999 37.4167Z" fill="#F37800" stroke="#F37800" stroke-width="0.3"/>
<path d="M31.683 28.6667C31.683 27.3932 30.6276 26.3667 29.333 26.3667C28.0385 26.3667 26.9831 27.3932 26.9831 28.6667C26.9831 29.9402 28.0385 30.9667 29.333 30.9667C30.6276 30.9667 31.683 29.9402 31.683 28.6667ZM28.7497 28.6667C28.7497 28.357 29.0076 28.1 29.333 28.1C29.6585 28.1 29.9164 28.357 29.9164 28.6667C29.9164 28.9764 29.6585 29.2334 29.333 29.2334C29.0076 29.2334 28.7497 28.9764 28.7497 28.6667Z" fill="#F37800" stroke="#F37800" stroke-width="0.3"/>
<path d="M36.6665 33.5335C35.3719 33.5335 34.3166 34.56 34.3166 35.8335C34.3166 37.1069 35.3719 38.1334 36.6665 38.1334C37.9611 38.1334 39.0165 37.1069 39.0165 35.8335C39.0165 34.56 37.9611 33.5335 36.6665 33.5335ZM36.6665 36.4001C36.3411 36.4001 36.0832 36.1432 36.0832 35.8335C36.0832 35.5237 36.3411 35.2668 36.6665 35.2668C36.992 35.2668 37.2499 35.5237 37.2499 35.8335C37.2499 36.1432 36.992 36.4001 36.6665 36.4001Z" fill="#F37800" stroke="#F37800" stroke-width="0.3"/>
</g>
<defs>
<clipPath id="clip0_890_31622">
<rect width="44" height="43" fill="white"/>
</clipPath>
</defs>
</svg>
