<svg width="61" height="61" viewBox="0 0 61 61" fill="none" xmlns="http://www.w3.org/2000/svg">
<path d="M41.6822 45.5163C41.121 45.5163 40.6655 45.1137 40.6655 44.5505V44.4488C40.6655 43.8876 41.121 43.4321 41.6822 43.4321C42.2434 43.4321 42.6988 43.8876 42.6988 44.4488C42.6988 45.01 42.2434 45.5163 41.6822 45.5163Z" fill="#216079"/>
<path d="M41.6823 52.8668H33.549C32.9878 52.8668 32.5323 52.4114 32.5323 51.8502V48.5826C30.0334 48.8693 26.9752 48.8835 24.399 48.5562V51.8502C24.399 52.4114 23.9435 52.8668 23.3823 52.8668H15.249C14.6878 52.8668 14.2323 52.4114 14.2323 51.8502V44.8962C10.798 42.5721 9.12664 39.8555 8.50241 38.6335H5.08234C4.52114 38.6335 4.06567 38.178 4.06567 37.6168V29.4835C4.06567 28.9223 4.52114 28.4668 5.08234 28.4668H8.45767C8.90297 27.4746 9.94201 25.6019 12.0506 23.7312L10.2084 17.5763C10.1169 17.2672 10.1738 16.9338 10.367 16.6776C10.5581 16.4193 10.8611 16.2668 11.1823 16.2668C13.9233 16.2668 18.6731 17.7247 20.0883 20.362C20.3547 20.8561 20.1697 21.4722 19.6735 21.7385C19.1754 22.0069 18.5633 21.8199 18.297 21.3237C17.5772 19.9817 14.8911 18.7983 12.5853 18.4242L14.1896 23.7841C14.3076 24.1765 14.1774 24.6035 13.8582 24.8638C10.9363 27.2529 10.1291 29.758 10.1209 29.7844C9.98877 30.2053 9.59431 30.5002 9.14901 30.5002H6.09901V36.6002H9.14901C9.56584 36.6002 9.94201 36.8584 10.0965 37.2468C10.1087 37.2813 11.528 40.7746 15.796 43.4891C16.0888 43.6762 16.2657 43.9995 16.2657 44.3472V50.8335H22.3657V47.3768C22.3657 47.0779 22.4978 46.7912 22.7276 46.5981C22.9574 46.4049 23.2624 46.3236 23.5552 46.3744C26.5828 46.899 30.4909 46.8766 33.3863 46.413C33.6812 46.3642 33.9801 46.4517 34.2058 46.6428C34.4355 46.836 34.5657 47.1186 34.5657 47.4175V50.8335H40.6657V44.5505C40.6657 44.2048 40.8405 43.8836 41.1313 43.6965C46.2167 40.4167 46.7657 35.5083 46.7657 33.5502C46.7657 31.6632 45.5416 26.0533 39.9581 22.7877C39.4741 22.5031 39.3115 21.8809 39.5941 21.3969C39.8788 20.911 40.4969 20.7483 40.9849 21.033C47.396 24.7824 48.799 31.3399 48.799 33.5502C48.799 35.7807 48.1931 41.2768 42.699 45.0934V51.8502C42.699 52.4114 42.2435 52.8668 41.6823 52.8668Z" fill="#216079"/>
<path d="M37.8206 26.1079C37.666 26.1079 37.5095 26.0733 37.361 25.9981C35.2667 24.9387 32.6173 24.3999 29.4819 24.3999C26.1818 24.3999 23.2741 24.8208 20.8402 25.6504C20.3075 25.8334 19.73 25.5467 19.5491 25.016C19.3681 24.4833 19.6507 23.9058 20.1835 23.7248C22.8288 22.8241 25.9581 22.3666 29.4819 22.3666C32.9385 22.3666 35.8991 22.9786 38.2821 24.1844C38.7823 24.4385 38.9836 25.0506 38.7295 25.5508C38.5485 25.9046 38.1927 26.1079 37.8206 26.1079Z" fill="#F37800"/>
<path d="M34.2606 24.8678C33.9454 24.8678 33.6323 24.7214 33.4351 24.4448C33.1077 23.9894 33.2114 23.355 33.6669 23.0256C35.503 21.7039 36.5989 19.5567 36.5989 17.2834C36.5989 13.3591 33.4066 10.1668 29.4823 10.1668C25.5579 10.1668 22.3656 13.3591 22.3656 17.2834C22.3656 19.5364 23.3823 21.59 25.1513 22.9158C25.6006 23.2533 25.6921 23.8897 25.3566 24.3391C25.0191 24.7885 24.3827 24.88 23.9333 24.5445C21.6458 22.8304 20.3323 20.183 20.3323 17.2834C20.3323 12.2387 24.4376 8.13342 29.4823 8.13342C34.527 8.13342 38.6323 12.2387 38.6323 17.2834C38.6323 20.2074 37.2191 22.9727 34.8543 24.6766C34.6734 24.8047 34.466 24.8678 34.2606 24.8678Z" fill="#F37800"/>
<path d="M14.2323 32.5338C15.3553 32.5338 16.2656 31.6235 16.2656 30.5005C16.2656 29.3775 15.3553 28.4672 14.2323 28.4672C13.1093 28.4672 12.199 29.3775 12.199 30.5005C12.199 31.6235 13.1093 32.5338 14.2323 32.5338Z" fill="#F37800"/>
<path d="M47.7813 34.567C47.2201 34.567 46.7646 34.1116 46.7646 33.5504C46.7646 32.9892 47.2201 32.5337 47.7813 32.5337C48.3588 32.5337 49.1071 32.2694 49.8533 31.8566C49.103 30.6793 48.798 29.3109 48.798 28.467C48.798 25.7688 49.8248 24.4004 51.848 24.4004C54.898 24.4004 54.898 27.2491 54.898 28.467C54.898 29.6952 54.1436 30.9335 53.0782 31.9684C53.7553 32.1474 54.5625 32.0254 55.4958 31.6065C56.0082 31.3686 56.6101 31.6045 56.8398 32.1148C57.0716 32.6252 56.8439 33.2291 56.3315 33.4589C53.9484 34.5325 52.3075 34.0201 51.3478 33.3999C51.3254 33.3857 51.3051 33.3714 51.2827 33.3572C50.0688 34.1014 48.7736 34.567 47.7813 34.567ZM51.848 26.4337C51.3722 26.4337 50.8313 26.4337 50.8313 28.467C50.8313 28.9693 51.0387 29.8904 51.5084 30.6712C52.2974 29.9514 52.8647 29.1421 52.8647 28.467C52.8647 26.513 52.5698 26.4337 51.848 26.4337Z" fill="#216079"/>
</svg>
