<svg width="180" height="52" viewBox="0 0 180 52" fill="none" xmlns="http://www.w3.org/2000/svg">
<g clip-path="url(#clip0_989_26694)">
<path d="M14.9062 6.25126C16.3714 6.92181 17.4968 7.89518 18.2824 9.12813C19.0681 10.3611 19.4715 11.832 19.4715 13.5408C19.4715 15.228 19.0681 16.6772 18.2824 17.9318C17.4968 19.1864 16.3714 20.1381 14.9062 20.8087C13.4411 21.4792 11.7211 21.8037 9.72514 21.8037H5.37218C5.26601 21.8037 5.18108 21.8902 5.18108 21.9983V27.9251C5.18108 28.0333 5.09614 28.1198 4.98997 28.1198H0.191105C0.0849357 28.1198 0 28.0333 0 27.9251V5.42929C0 5.32114 0.0849357 5.23462 0.191105 5.23462H9.72514C11.6999 5.23462 13.4411 5.55908 14.9062 6.25126ZM12.9952 16.4609C13.8021 15.7687 14.2055 14.7954 14.2055 13.5408C14.2055 12.2646 13.8021 11.2696 12.9952 10.5774C12.1883 9.8852 10.9992 9.53911 9.42786 9.53911H5.37218C5.26601 9.53911 5.18108 9.62563 5.18108 9.73379V17.3045C5.18108 17.4127 5.26601 17.4992 5.37218 17.4992H9.42786C10.9992 17.4775 12.1883 17.1315 12.9952 16.4609Z" fill="#246079"/>
<path d="M23.3574 5.23462H28.1775C28.2836 5.23462 28.3686 5.32114 28.3686 5.42929V27.9251C28.3686 28.0333 28.2836 28.1198 28.1775 28.1198H23.3574C23.2512 28.1198 23.1663 28.0333 23.1663 27.9251V5.42929C23.1663 5.32114 23.2512 5.23462 23.3574 5.23462Z" fill="#246079"/>
<path d="M47.9462 28.0333L43.7206 21.8253C43.6782 21.782 43.6357 21.7388 43.572 21.7388H43.4021H39.0704C38.9642 21.7388 38.8793 21.8253 38.8793 21.9335V27.9251C38.8793 28.0333 38.7944 28.1198 38.6882 28.1198H33.8681C33.7619 28.1198 33.677 28.0333 33.677 27.9251V5.42929C33.677 5.32114 33.7619 5.23462 33.8681 5.23462H43.4021C45.3981 5.23462 47.1181 5.58071 48.5832 6.25126C50.0484 6.92181 51.1738 7.89518 51.9594 9.12813C52.7451 10.3611 53.1485 11.832 53.1485 13.5408C53.1485 15.2496 52.7451 16.6988 51.9382 17.9318C51.1738 19.0998 50.1121 20.0083 48.7319 20.6572C48.6257 20.7005 48.5832 20.8303 48.6469 20.9384L53.3608 27.817C53.4458 27.9468 53.3609 28.1198 53.2122 28.1198H48.0736C48.0311 28.0982 47.9674 28.0765 47.9462 28.0333ZM46.6722 10.5774C45.8653 9.8852 44.6762 9.53911 43.1049 9.53911H39.0704C38.9642 9.53911 38.8793 9.62563 38.8793 9.73379V17.3261C38.8793 17.4343 38.9642 17.5208 39.0704 17.5208H43.1049C44.6762 17.5208 45.844 17.1747 46.6722 16.4825C47.4791 15.7904 47.8825 14.7954 47.8825 13.5408C47.9037 12.2429 47.4791 11.2696 46.6722 10.5774Z" fill="#246079"/>
<path d="M110.969 27.9252L110.947 15.0766C110.947 14.882 110.693 14.8171 110.608 14.9901L104.386 25.6108C104.344 25.6757 104.301 25.6973 104.237 25.6973H102.114C102.05 25.6973 101.987 25.654 101.965 25.6108L95.7863 15.2713C95.6801 15.0983 95.4465 15.1848 95.4465 15.3795V27.9469C95.4465 28.055 95.3616 28.1415 95.2554 28.1415H90.7538C90.6477 28.1415 90.5627 28.055 90.5627 27.9469V5.45102C90.5627 5.34287 90.6477 5.25635 90.7538 5.25635H94.7671C94.8308 5.25635 94.8945 5.29961 94.9157 5.34287L103.112 19.1865C103.176 19.3162 103.367 19.3162 103.431 19.1865L111.499 5.34287C111.542 5.27798 111.584 5.25635 111.669 5.25635H115.64C115.746 5.25635 115.831 5.34287 115.831 5.45102L115.895 27.9469C115.895 28.055 115.81 28.1415 115.704 28.1415H111.202C111.053 28.0983 110.969 28.0118 110.969 27.9252Z" fill="#246079"/>
<path d="M121.352 5.23462H126.172C126.278 5.23462 126.363 5.32114 126.363 5.42929V27.9251C126.363 28.0333 126.278 28.1198 126.172 28.1198H121.352C121.246 28.1198 121.161 28.0333 121.161 27.9251V5.42929C121.161 5.32114 121.246 5.23462 121.352 5.23462Z" fill="#246079"/>
<path d="M131.693 5.42929C131.693 5.32114 131.778 5.23462 131.884 5.23462H141.906C144.348 5.23462 146.493 5.71049 148.361 6.66224C150.23 7.61399 151.695 8.95508 152.714 10.6639C153.755 12.3944 154.264 14.3844 154.264 16.6772C154.264 18.9701 153.755 20.9601 152.714 22.6905C151.674 24.421 150.23 25.7404 148.361 26.6922C146.493 27.6439 144.327 28.1198 141.906 28.1198H131.863C131.756 28.1198 131.672 28.0333 131.672 27.9251V5.42929H131.693ZM141.63 23.7504C143.881 23.7504 145.665 23.1231 147.002 21.8469C148.34 20.5707 148.998 18.8403 148.998 16.6772C148.998 14.4925 148.34 12.7621 147.002 11.5075C145.665 10.2313 143.881 9.604 141.63 9.604H137.065C136.959 9.604 136.874 9.69053 136.874 9.79868V23.5774C136.874 23.6855 136.959 23.7721 137.065 23.7721H141.63V23.7504Z" fill="#246079"/>
<path d="M172.526 23.2097H162.355C162.27 23.2097 162.206 23.2529 162.185 23.3178L160.295 27.99C160.274 28.0549 160.189 28.0982 160.125 28.0982H155.199C155.071 28.0982 154.965 27.9468 155.029 27.8386L164.881 5.34277C164.903 5.27788 164.988 5.23462 165.051 5.23462H169.935C169.999 5.23462 170.084 5.27788 170.105 5.34277L179.979 27.8386C180.043 27.9684 179.936 28.0982 179.809 28.0982H174.755C174.67 28.0982 174.607 28.0549 174.585 27.99L172.696 23.3178C172.674 23.2529 172.611 23.2097 172.526 23.2097ZM170.912 18.9268L167.621 10.8586C167.557 10.7072 167.345 10.7072 167.281 10.8586L163.99 18.9268C163.947 19.0566 164.032 19.1864 164.16 19.1864H170.721C170.869 19.1864 170.954 19.0566 170.912 18.9268Z" fill="#246079"/>
<path d="M77.5038 28.0981H66.4622C66.5683 28.0981 66.6533 28.0548 66.6957 27.9467L70.3267 21.6089H73.618L77.2702 27.9467C77.3127 28.0548 77.3976 28.0981 77.5038 28.0981Z" fill="#246079"/>
<path d="M77.249 9.53906L70.3268 21.6306L66.6958 27.9684C66.6533 28.0549 66.5471 28.1198 66.4622 28.1198H56.3549C56.1425 28.1198 56.0151 27.8818 56.1213 27.6872L71.6221 0.151378C71.7282 -0.0432978 72.0043 -0.0432978 72.1104 0.151378L77.249 9.25787C77.3127 9.34439 77.3127 9.45254 77.249 9.53906Z" fill="#EE7809"/>
<path d="M87.59 28.0981H77.5039C77.3978 28.0981 77.3128 28.0548 77.2704 27.9683L73.6181 21.6305L72.3865 19.5107C72.2804 19.3161 72.4078 19.0781 72.6201 19.0781H82.8973C83.0035 19.0781 83.0885 19.143 83.1522 19.2295L87.8236 27.6871C87.9298 27.8602 87.8024 28.0981 87.59 28.0981Z" fill="#EE7809"/>
<path d="M110.629 39.822C111.584 40.7953 112.073 42.2662 112.073 44.213L112.094 51.8053H108.314L108.293 44.797C108.293 43.7371 108.081 42.9584 107.656 42.4393C107.231 41.9201 106.616 41.6606 105.83 41.6606C104.938 41.6606 104.237 41.9634 103.728 42.5474C103.218 43.1314 102.963 43.9967 102.963 45.1431L102.985 51.8053H99.2049L99.1837 44.797C99.1837 42.6988 98.3556 41.6606 96.6993 41.6606C95.8287 41.6606 95.128 41.9634 94.6184 42.5474C94.1088 43.1314 93.854 43.9967 93.854 45.1431L93.8752 51.8053H90.0956L90.0743 38.5457H93.6841V40.0815C94.1725 39.5191 94.767 39.0865 95.4678 38.8053C96.1685 38.5025 96.9329 38.3511 97.7823 38.3511C98.6953 38.3511 99.5234 38.5241 100.267 38.8918C101.01 39.2596 101.604 39.8003 102.072 40.5141C102.602 39.822 103.282 39.2812 104.089 38.9135C104.896 38.5241 105.787 38.3511 106.764 38.3511C108.378 38.3511 109.673 38.8486 110.629 39.822Z" fill="#EE7809"/>
<path d="M125.365 39.7786C126.448 40.752 127 42.2229 127 44.1912L127.021 51.762H123.497V50.118C122.796 51.351 121.458 51.9783 119.526 51.9783C118.528 51.9783 117.657 51.8052 116.914 51.4591C116.171 51.113 115.619 50.6372 115.237 50.0315C114.854 49.4259 114.663 48.7337 114.642 47.955C114.642 46.722 115.088 45.7486 116.001 45.0348C116.914 44.321 118.315 43.9749 120.226 43.9749H123.22C123.22 43.1313 122.966 42.4824 122.456 42.0498C121.946 41.5956 121.203 41.3793 120.205 41.3793C119.505 41.3793 118.825 41.4874 118.167 41.7254C117.487 41.9417 116.935 42.2445 116.468 42.6338L115.109 39.9516C115.81 39.4325 116.659 39.0432 117.657 38.762C118.655 38.4808 119.674 38.3293 120.715 38.3293C122.732 38.3293 124.282 38.8052 125.365 39.7786ZM122.159 48.95C122.668 48.6472 123.008 48.1929 123.22 47.6089V46.2462H120.63C119.08 46.2462 118.315 46.7653 118.315 47.8036C118.315 48.3011 118.507 48.6904 118.889 48.9716C119.271 49.2528 119.781 49.4042 120.46 49.4042C121.097 49.4042 121.67 49.2528 122.159 48.95Z" fill="#EE7809"/>
<path d="M135.833 38.7836C136.598 38.4592 137.49 38.2861 138.488 38.2861V41.8336C138.063 41.8119 137.787 41.7903 137.638 41.7903C136.555 41.7903 135.706 42.0931 135.09 42.7204C134.475 43.3477 134.177 44.2562 134.177 45.4891L134.198 51.762H130.419L130.398 38.5024H134.007V40.2545C134.453 39.6056 135.069 39.1297 135.833 38.7836Z" fill="#EE7809"/>
<path d="M146.344 46.5274L144.539 48.366V51.7404H140.76L140.717 33.4409H144.497L144.518 43.802L150.018 38.4592H154.519L149.105 44.0832L155.029 51.7188H150.464L146.344 46.5274Z" fill="#EE7809"/>
<path d="M168.852 46.1381L159 46.1597C159.17 46.9817 159.594 47.6306 160.253 48.1065C160.911 48.5824 161.739 48.8203 162.716 48.8203C163.395 48.8203 163.99 48.7121 164.521 48.5175C165.051 48.3012 165.54 47.9767 165.986 47.5441L168.003 49.7504C166.771 51.178 164.988 51.8918 162.631 51.9135C161.166 51.9135 159.87 51.6323 158.724 51.0482C157.598 50.4642 156.728 49.6639 156.112 48.6256C155.496 47.5873 155.178 46.4193 155.178 45.0998C155.178 43.802 155.475 42.6339 156.069 41.574C156.664 40.5358 157.492 39.7138 158.554 39.1298C159.616 38.5457 160.783 38.2429 162.1 38.2429C163.374 38.2429 164.521 38.5241 165.561 39.0649C166.601 39.6273 167.408 40.4276 168.003 41.4659C168.597 42.5041 168.895 43.7155 168.895 45.0998C168.916 45.1647 168.895 45.5108 168.852 46.1381ZM159.998 41.8985C159.424 42.396 159.063 43.0665 158.936 43.9318L165.349 43.9101C165.221 43.0665 164.86 42.396 164.287 41.8985C163.714 41.401 162.992 41.1414 162.164 41.1414C161.314 41.1631 160.592 41.401 159.998 41.8985Z" fill="#EE7809"/>
<path d="M179.851 51.0265C179.49 51.3077 179.023 51.524 178.492 51.6538C177.962 51.7836 177.388 51.8701 176.794 51.8701C175.244 51.8701 174.055 51.4808 173.205 50.6588C172.356 49.8585 171.931 48.6688 171.931 47.1114L171.91 41.6605H169.893V38.6971H171.91V35.4741H175.69V38.6971H178.938V41.6605H175.69V47.0681C175.69 47.6305 175.838 48.0631 176.114 48.366C176.39 48.6688 176.794 48.8202 177.303 48.8202C177.898 48.8202 178.408 48.6472 178.832 48.3227L179.851 51.0265Z" fill="#EE7809"/>
</g>
<defs>
<clipPath id="clip0_989_26694">
<rect width="180" height="52" fill="white"/>
</clipPath>
</defs>
</svg>
