<svg style="display: none;" aria-hidden="true" xmlns="http://www.w3.org/2000/svg" xmlns:xlink="http://www.w3.org/1999/xlink"><symbol viewBox="0 0 19 19" id="svg-cart"><path d="M17.1001 16.4239L16.0122 4.17301C15.9889 3.90102 15.7596 3.69509 15.4915 3.69509H13.2535C13.2224 1.65133 11.5517 0 9.50013 0C7.44859 0 5.77784 1.65133 5.74675 3.69509H3.50871C3.23673 3.69509 3.01137 3.90102 2.98806 4.17301L1.90013 16.4239C1.90013 16.4395 1.89624 16.455 1.89624 16.4706C1.89624 17.8654 3.17456 19 4.74818 19H14.2521C15.8257 19 17.104 17.8654 17.104 16.4706C17.104 16.455 17.104 16.4395 17.1001 16.4239ZM9.50013 1.04908C10.9727 1.04908 12.1733 2.23027 12.2044 3.69509H6.79583C6.82691 2.23027 8.02753 1.04908 9.50013 1.04908ZM14.2521 17.9509H4.74818C3.76127 17.9509 2.96086 17.2982 2.94532 16.4939L3.98663 4.74806H5.74287V6.3411C5.74287 6.63251 5.976 6.86564 6.26741 6.86564C6.55882 6.86564 6.79195 6.63251 6.79195 6.3411V4.74806H12.2044V6.3411C12.2044 6.63251 12.4376 6.86564 12.729 6.86564C13.0204 6.86564 13.2535 6.63251 13.2535 6.3411V4.74806H15.0097L16.0549 16.4939C16.0394 17.2982 15.2351 17.9509 14.2521 17.9509Z"/></symbol><symbol viewBox="0 0 20 20" id="svg-compare"><g clip-path="url(#bclip0_890_31963)"><path d="M19.7046 9.8749L16.5682 3.60217C16.5259 3.46901 16.4111 3.37183 16.2727 3.35217 16.1591 3.35217 16.0455 3.48854 15.9773 3.48854H12C11.8374 2.50206 10.9993 1.76872 9.99995 1.73853 9.00063 1.76867 8.16249 2.50206 7.99993 3.48854H4.02271C3.95455 3.48854 3.84088 3.35217 3.72725 3.35217 3.5924 3.36261 3.47647 3.45179 3.43179 3.57942L.295462 9.85219C.129852 9.88365.00756926 10.0247 0 10.1931 0 12.0568 1.6591 13.5567 3.7273 13.5567 5.79549 13.5567 7.4773 12.0567 7.4773 10.2158 7.48026 10.0265 7.34553 9.86285 7.15913 9.82944L4.36364 4.17034H8.04547C8.16323 4.97151 8.75759 5.61985 9.54549 5.80669V13.9431H10.2273V5.80674C11.107 5.7149 11.8154 5.04381 11.9546 4.17039H15.6364L12.8409 9.82949C12.6581 9.85254 12.5213 10.0088 12.5228 10.1931 12.5228 12.034 14.2046 13.5567 16.2728 13.5567 18.341 13.5567 20.0001 12.0567 20.0001 10.1931 19.9905 10.0299 19.8666 9.89643 19.7046 9.8749zM6.40912 9.85219H1.06818L3.7273 4.48855 6.40912 9.85219zM13.5909 9.85219L16.2727 4.48855 18.9319 9.85219H13.5909zM13.8641 17.1249H6.13684V18.2612H13.8641V17.1249zM10.0003 14.6249C8.70487 14.6249 7.6367 15.3067 7.52307 16.4431H12.4776C12.364 15.3067 11.2958 14.6249 10.0003 14.6249z"/></g><defs><clipPath id="bclip0_890_31963"><path d="M0 0H20V20H0z"/></clipPath></defs></symbol><symbol viewBox="0 0 9 17" id="svg-fb"><path d="M6.69994 2.72164H8.19633V0.115422C7.93817 0.0799075 7.05031 0 6.01629 0C3.85879 0 2.38084 1.35706 2.38084 3.85127V6.14673H0V9.06029H2.38084V16.3913H5.29985V9.06097H7.58439L7.94705 6.14742H5.29917V4.14017C5.29986 3.29806 5.5266 2.72164 6.69994 2.72164Z"/></symbol><symbol viewBox="0 0 20 20" id="svg-heart"><path d="M9.99998 19.8873C9.71525 19.8873 9.44075 19.7842 9.22682 19.5968C8.41887 18.8903 7.63991 18.2264 6.95265 17.6408L6.94914 17.6377C4.93423 15.9207 3.19427 14.4378 1.98364 12.9771C0.630339 11.3441 0 9.79578 0 8.10434C0 6.46097 0.563506 4.94485 1.58661 3.83508C2.62191 2.71219 4.0425 2.09375 5.58715 2.09375C6.74163 2.09375 7.7989 2.45874 8.72954 3.1785C9.1992 3.54181 9.62492 3.98645 9.99998 4.5051C10.3752 3.98645 10.8008 3.54181 11.2706 3.1785C12.2012 2.45874 13.2585 2.09375 14.413 2.09375C15.9575 2.09375 17.3782 2.71219 18.4135 3.83508C19.4366 4.94485 20 6.46097 20 8.10434C20 9.79578 19.3698 11.3441 18.0165 12.9769C16.8058 14.4378 15.066 15.9205 13.0514 17.6374C12.363 18.224 11.5828 18.8889 10.773 19.5971C10.5592 19.7842 10.2846 19.8873 9.99998 19.8873V19.8873ZM5.58715 3.26532C4.37362 3.26532 3.25881 3.74963 2.44781 4.62915C1.62475 5.52194 1.17142 6.75607 1.17142 8.10434C1.17142 9.52692 1.70013 10.7992 2.88558 12.2296C4.03136 13.6122 5.73562 15.0645 7.70888 16.7462L7.71254 16.7492C8.40239 17.3371 9.1844 18.0036 9.9983 18.7153C10.8171 18.0023 11.6003 17.3347 12.2915 16.7458C14.2647 15.0642 15.9688 13.6122 17.1145 12.2296C18.2998 10.7992 18.8285 9.52692 18.8285 8.10434C18.8285 6.75607 18.3752 5.52194 17.5522 4.62915C16.7413 3.74963 15.6263 3.26532 14.413 3.26532C13.524 3.26532 12.7078 3.54791 11.9871 4.10516C11.3449 4.60199 10.8975 5.23004 10.6352 5.66949C10.5003 5.89548 10.2629 6.03036 9.99998 6.03036C9.73707 6.03036 9.49965 5.89548 9.36476 5.66949C9.10261 5.23004 8.65523 4.60199 8.01283 4.10516C7.29216 3.54791 6.47597 3.26532 5.58715 3.26532V3.26532Z"/></symbol><symbol viewBox="0 0 20 20" id="svg-inst"><path d="M5.40203 0H14.5544C17.5332 0 19.9565 2.4233 19.9565 5.40203V14.5546C19.9565 17.5332 17.5332 19.9565 14.5544 19.9565H5.40188C2.4233 19.9565 0 17.5332 0 14.5546V5.40203C0 2.4233 2.4233 0 5.40203 0ZM9.97823 15.4349C12.9871 15.4349 15.4349 12.9871 15.4349 9.97823C15.4349 6.96935 12.9871 4.52154 9.97823 4.52154C6.96935 4.52154 4.52154 6.96935 4.52154 9.97823C4.52154 12.9871 6.96935 15.4349 9.97823 15.4349ZM4.39106 5.8084C5.28023 5.8084 6.00344 5.08519 6.00344 4.19602C6.00344 3.30684 5.28023 2.58348 4.39106 2.58348C3.50188 2.58348 2.77851 3.30684 2.77851 4.19602C2.77851 5.08519 3.50188 5.8084 4.39106 5.8084Z"/><path d="M9.97807 5.69138C12.3417 5.69138 14.2648 7.61437 14.2648 9.97814 14.2648 12.3418 12.3417 14.2649 9.97807 14.2649 7.6143 14.2649 5.69131 12.3418 5.69131 9.97814 5.69131 7.61437 7.6143 5.69138 9.97807 5.69138zM4.39126 3.75364C4.63517 3.75364 4.83371 3.95218 4.83371 4.19609 4.83371 4.44001 4.63517 4.63855 4.39126 4.63855 4.1472 4.63855 3.94866 4.44016 3.94866 4.19609 3.94866 3.95203 4.1472 3.75364 4.39126 3.75364z"/></symbol><symbol viewBox="0 0 22 18" id="svg-tg"><path d="M8.44831 11.8253L8.09216 16.8348C8.60172 16.8348 8.82241 16.6159 9.08706 16.353L11.4761 14.0699L16.4264 17.6951C17.3343 18.2011 17.9739 17.9346 18.2188 16.8599L21.4682 1.63401L21.4691 1.63312C21.757 0.29103 20.9837 -0.233784 20.0992 0.0954582L0.999548 7.40786C-0.303963 7.91384 -0.284227 8.6405 0.77796 8.96974L5.66097 10.4886L17.0032 3.39147C17.537 3.038 18.0223 3.23358 17.6231 3.58704L8.44831 11.8253Z"/></symbol><symbol viewBox="0 0 20 16" id="svg-twit"><path d="M19.0874 1.83597C18.3776 2.14733 17.6213 2.35372 16.8327 2.45392C17.6439 1.96958 18.2631 1.20847 18.5541 0.291083C17.7978 0.742023 16.9627 1.06054 16.0728 1.2383C15.3546 0.473606 14.3311 0 13.2144 0C11.048 0 9.30392 1.75843 9.30392 3.91411C9.30392 4.22428 9.33016 4.52252 9.39458 4.80645C6.14137 4.64778 3.26275 3.08858 1.32896 0.713392C0.991352 1.29914 0.79332 1.96958 0.79332 2.69132C0.79332 4.04653 1.4912 5.24784 2.53147 5.94334C1.90278 5.93141 1.28601 5.74889 0.763496 5.46138C0.763496 5.47331 0.763496 5.48882 0.763496 5.50433C0.763496 7.40591 2.11989 8.98539 3.8986 9.34925C3.58008 9.43633 3.23293 9.47809 2.87265 9.47809C2.62213 9.47809 2.36922 9.46377 2.13182 9.41128C2.63883 10.9609 4.07755 12.1002 5.78825 12.1372C4.45691 13.1787 2.76648 13.8062 0.936476 13.8062C0.615569 13.8062 0.307784 13.7918 0 13.7525C1.73337 14.8703 3.78766 15.5085 6.00299 15.5085C13.2037 15.5085 17.1405 9.5437 17.1405 4.3734C17.1405 4.20042 17.1345 4.03341 17.1262 3.86758C17.9028 3.31644 18.5553 2.6281 19.0874 1.83597Z"/></symbol><symbol viewBox="0 0 15 15" id="svg-user"><g clip-path="url(#hclip0_989_26638)"><path d="M12.8033 9.69668C11.9864 8.87982 11.0141 8.27511 9.95329 7.90904C11.0895 7.12649 11.8359 5.81684 11.8359 4.33594C11.8359 1.94511 9.89083 0 7.5 0C5.10917 0 3.16406 1.94511 3.16406 4.33594C3.16406 5.81684 3.91052 7.12649 5.04674 7.90904C3.9859 8.27511 3.01359 8.87982 2.19671 9.69668C0.780147 11.1133 0 12.9967 0 15H1.17188C1.17188 11.5107 4.01065 8.67188 7.5 8.67188C10.9893 8.67188 13.8281 11.5107 13.8281 15H15C15 12.9967 14.2199 11.1133 12.8033 9.69668ZM7.5 7.5C5.75534 7.5 4.33594 6.08063 4.33594 4.33594C4.33594 2.59125 5.75534 1.17188 7.5 1.17188C9.24466 1.17188 10.6641 2.59125 10.6641 4.33594C10.6641 6.08063 9.24466 7.5 7.5 7.5Z"/></g><defs><clipPath id="hclip0_989_26638"><path d="M0 0H15V15H0z"/></clipPath></defs></symbol><symbol viewBox="0 0 21 15" id="svg-yt"><path d="M20.5673 2.30072C20.3253 1.40107 19.616 0.691884 18.7165 0.449635C17.0732 0 10.4998 0 10.4998 0C10.4998 0 3.92661 0 2.28329 0.432587C1.40107 0.67458 0.674452 1.4012 0.432459 2.30072C0 3.94392 0 7.35168 0 7.35168C0 7.35168 0 10.7766 0.432459 12.4026C0.674708 13.3022 1.38377 14.0114 2.28342 14.2536C3.94392 14.7034 10.5 14.7034 10.5 14.7034C10.5 14.7034 17.0732 14.7034 18.7165 14.2708C19.6161 14.0287 20.3253 13.3195 20.5676 12.4199C20.9999 10.7766 20.9999 7.36898 20.9999 7.36898C20.9999 7.36898 21.0172 3.94392 20.5673 2.30072V2.30072ZM8.40694 10.4999V4.20347L13.873 7.35168L8.40694 10.4999Z"/></symbol></svg>